<?xml version="1.0" encoding="utf-8" standalone="no"?>
<!DOCTYPE svg PUBLIC "-//W3C//DTD SVG 1.1//EN"
  "http://www.w3.org/Graphics/SVG/1.1/DTD/svg11.dtd">
<svg xmlns:xlink="http://www.w3.org/1999/xlink" width="576pt" height="288pt" viewBox="0 0 576 288" xmlns="http://www.w3.org/2000/svg" version="1.1">
 <metadata>
  <rdf:RDF xmlns:dc="http://purl.org/dc/elements/1.1/" xmlns:cc="http://creativecommons.org/ns#" xmlns:rdf="http://www.w3.org/1999/02/22-rdf-syntax-ns#">
   <cc:Work>
    <dc:type rdf:resource="http://purl.org/dc/dcmitype/StillImage"/>
    <dc:date>2024-06-17T19:33:25.311659</dc:date>
    <dc:format>image/svg+xml</dc:format>
    <dc:creator>
     <cc:Agent>
      <dc:title>Matplotlib v3.7.1, https://matplotlib.org/</dc:title>
     </cc:Agent>
    </dc:creator>
   </cc:Work>
  </rdf:RDF>
 </metadata>
 <defs>
  <style type="text/css">*{stroke-linejoin: round; stroke-linecap: butt}</style>
 </defs>
 <g id="figure_1">
  <g id="patch_1">
   <path d="M 0 288 
L 576 288 
L 576 0 
L 0 0 
z
" style="fill: #ffffff"/>
  </g>
  <g id="axes_1">
   <g id="patch_2">
    <path d="M 53.03 246.04 
L 565.2 246.04 
L 565.2 25.44 
L 53.03 25.44 
z
" style="fill: #ffffff"/>
   </g>
   <g id="matplotlib.axis_1">
    <g id="xtick_1">
     <g id="line2d_1">
      <path d="M 109.066873 246.04 
L 109.066873 25.44 
" clip-path="url(#pa1e85a9c59)" style="fill: none; stroke: #b0b0b0; stroke-width: 0.8; stroke-linecap: square"/>
     </g>
     <g id="line2d_2">
      <defs>
       <path id="m3e8a0e1873" d="M 0 0 
L 0 3.5 
" style="stroke: #000000; stroke-width: 0.8"/>
      </defs>
      <g>
       <use xlink:href="#m3e8a0e1873" x="109.066873" y="246.04" style="stroke: #000000; stroke-width: 0.8"/>
      </g>
     </g>
     <g id="text_1">
      <!-- 2024-07 -->
      <g transform="translate(88.175467 260.638438) scale(0.1 -0.1)">
       <defs>
        <path id="DejaVuSans-32" d="M 1228 531 
L 3431 531 
L 3431 0 
L 469 0 
L 469 531 
Q 828 903 1448 1529 
Q 2069 2156 2228 2338 
Q 2531 2678 2651 2914 
Q 2772 3150 2772 3378 
Q 2772 3750 2511 3984 
Q 2250 4219 1831 4219 
Q 1534 4219 1204 4116 
Q 875 4013 500 3803 
L 500 4441 
Q 881 4594 1212 4672 
Q 1544 4750 1819 4750 
Q 2544 4750 2975 4387 
Q 3406 4025 3406 3419 
Q 3406 3131 3298 2873 
Q 3191 2616 2906 2266 
Q 2828 2175 2409 1742 
Q 1991 1309 1228 531 
z
" transform="scale(0.015625)"/>
        <path id="DejaVuSans-30" d="M 2034 4250 
Q 1547 4250 1301 3770 
Q 1056 3291 1056 2328 
Q 1056 1369 1301 889 
Q 1547 409 2034 409 
Q 2525 409 2770 889 
Q 3016 1369 3016 2328 
Q 3016 3291 2770 3770 
Q 2525 4250 2034 4250 
z
M 2034 4750 
Q 2819 4750 3233 4129 
Q 3647 3509 3647 2328 
Q 3647 1150 3233 529 
Q 2819 -91 2034 -91 
Q 1250 -91 836 529 
Q 422 1150 422 2328 
Q 422 3509 836 4129 
Q 1250 4750 2034 4750 
z
" transform="scale(0.015625)"/>
        <path id="DejaVuSans-34" d="M 2419 4116 
L 825 1625 
L 2419 1625 
L 2419 4116 
z
M 2253 4666 
L 3047 4666 
L 3047 1625 
L 3713 1625 
L 3713 1100 
L 3047 1100 
L 3047 0 
L 2419 0 
L 2419 1100 
L 313 1100 
L 313 1709 
L 2253 4666 
z
" transform="scale(0.015625)"/>
        <path id="DejaVuSans-2d" d="M 313 2009 
L 1997 2009 
L 1997 1497 
L 313 1497 
L 313 2009 
z
" transform="scale(0.015625)"/>
        <path id="DejaVuSans-37" d="M 525 4666 
L 3525 4666 
L 3525 4397 
L 1831 0 
L 1172 0 
L 2766 4134 
L 525 4134 
L 525 4666 
z
" transform="scale(0.015625)"/>
       </defs>
       <use xlink:href="#DejaVuSans-32"/>
       <use xlink:href="#DejaVuSans-30" x="63.623047"/>
       <use xlink:href="#DejaVuSans-32" x="127.246094"/>
       <use xlink:href="#DejaVuSans-34" x="190.869141"/>
       <use xlink:href="#DejaVuSans-2d" x="254.492188"/>
       <use xlink:href="#DejaVuSans-30" x="290.576172"/>
       <use xlink:href="#DejaVuSans-37" x="354.199219"/>
      </g>
     </g>
    </g>
    <g id="xtick_2">
     <g id="line2d_3">
      <path d="M 181.598942 246.04 
L 181.598942 25.44 
" clip-path="url(#pa1e85a9c59)" style="fill: none; stroke: #b0b0b0; stroke-width: 0.8; stroke-linecap: square"/>
     </g>
     <g id="line2d_4">
      <g>
       <use xlink:href="#m3e8a0e1873" x="181.598942" y="246.04" style="stroke: #000000; stroke-width: 0.8"/>
      </g>
     </g>
     <g id="text_2">
      <!-- 2024-08 -->
      <g transform="translate(160.707536 260.638438) scale(0.1 -0.1)">
       <defs>
        <path id="DejaVuSans-38" d="M 2034 2216 
Q 1584 2216 1326 1975 
Q 1069 1734 1069 1313 
Q 1069 891 1326 650 
Q 1584 409 2034 409 
Q 2484 409 2743 651 
Q 3003 894 3003 1313 
Q 3003 1734 2745 1975 
Q 2488 2216 2034 2216 
z
M 1403 2484 
Q 997 2584 770 2862 
Q 544 3141 544 3541 
Q 544 4100 942 4425 
Q 1341 4750 2034 4750 
Q 2731 4750 3128 4425 
Q 3525 4100 3525 3541 
Q 3525 3141 3298 2862 
Q 3072 2584 2669 2484 
Q 3125 2378 3379 2068 
Q 3634 1759 3634 1313 
Q 3634 634 3220 271 
Q 2806 -91 2034 -91 
Q 1263 -91 848 271 
Q 434 634 434 1313 
Q 434 1759 690 2068 
Q 947 2378 1403 2484 
z
M 1172 3481 
Q 1172 3119 1398 2916 
Q 1625 2713 2034 2713 
Q 2441 2713 2670 2916 
Q 2900 3119 2900 3481 
Q 2900 3844 2670 4047 
Q 2441 4250 2034 4250 
Q 1625 4250 1398 4047 
Q 1172 3844 1172 3481 
z
" transform="scale(0.015625)"/>
       </defs>
       <use xlink:href="#DejaVuSans-32"/>
       <use xlink:href="#DejaVuSans-30" x="63.623047"/>
       <use xlink:href="#DejaVuSans-32" x="127.246094"/>
       <use xlink:href="#DejaVuSans-34" x="190.869141"/>
       <use xlink:href="#DejaVuSans-2d" x="254.492188"/>
       <use xlink:href="#DejaVuSans-30" x="290.576172"/>
       <use xlink:href="#DejaVuSans-38" x="354.199219"/>
      </g>
     </g>
    </g>
    <g id="xtick_3">
     <g id="line2d_5">
      <path d="M 254.131012 246.04 
L 254.131012 25.44 
" clip-path="url(#pa1e85a9c59)" style="fill: none; stroke: #b0b0b0; stroke-width: 0.8; stroke-linecap: square"/>
     </g>
     <g id="line2d_6">
      <g>
       <use xlink:href="#m3e8a0e1873" x="254.131012" y="246.04" style="stroke: #000000; stroke-width: 0.8"/>
      </g>
     </g>
     <g id="text_3">
      <!-- 2024-09 -->
      <g transform="translate(233.239606 260.638438) scale(0.1 -0.1)">
       <defs>
        <path id="DejaVuSans-39" d="M 703 97 
L 703 672 
Q 941 559 1184 500 
Q 1428 441 1663 441 
Q 2288 441 2617 861 
Q 2947 1281 2994 2138 
Q 2813 1869 2534 1725 
Q 2256 1581 1919 1581 
Q 1219 1581 811 2004 
Q 403 2428 403 3163 
Q 403 3881 828 4315 
Q 1253 4750 1959 4750 
Q 2769 4750 3195 4129 
Q 3622 3509 3622 2328 
Q 3622 1225 3098 567 
Q 2575 -91 1691 -91 
Q 1453 -91 1209 -44 
Q 966 3 703 97 
z
M 1959 2075 
Q 2384 2075 2632 2365 
Q 2881 2656 2881 3163 
Q 2881 3666 2632 3958 
Q 2384 4250 1959 4250 
Q 1534 4250 1286 3958 
Q 1038 3666 1038 3163 
Q 1038 2656 1286 2365 
Q 1534 2075 1959 2075 
z
" transform="scale(0.015625)"/>
       </defs>
       <use xlink:href="#DejaVuSans-32"/>
       <use xlink:href="#DejaVuSans-30" x="63.623047"/>
       <use xlink:href="#DejaVuSans-32" x="127.246094"/>
       <use xlink:href="#DejaVuSans-34" x="190.869141"/>
       <use xlink:href="#DejaVuSans-2d" x="254.492188"/>
       <use xlink:href="#DejaVuSans-30" x="290.576172"/>
       <use xlink:href="#DejaVuSans-39" x="354.199219"/>
      </g>
     </g>
    </g>
    <g id="xtick_4">
     <g id="line2d_7">
      <path d="M 324.323337 246.04 
L 324.323337 25.44 
" clip-path="url(#pa1e85a9c59)" style="fill: none; stroke: #b0b0b0; stroke-width: 0.8; stroke-linecap: square"/>
     </g>
     <g id="line2d_8">
      <g>
       <use xlink:href="#m3e8a0e1873" x="324.323337" y="246.04" style="stroke: #000000; stroke-width: 0.8"/>
      </g>
     </g>
     <g id="text_4">
      <!-- 2024-10 -->
      <g transform="translate(303.431931 260.638438) scale(0.1 -0.1)">
       <defs>
        <path id="DejaVuSans-31" d="M 794 531 
L 1825 531 
L 1825 4091 
L 703 3866 
L 703 4441 
L 1819 4666 
L 2450 4666 
L 2450 531 
L 3481 531 
L 3481 0 
L 794 0 
L 794 531 
z
" transform="scale(0.015625)"/>
       </defs>
       <use xlink:href="#DejaVuSans-32"/>
       <use xlink:href="#DejaVuSans-30" x="63.623047"/>
       <use xlink:href="#DejaVuSans-32" x="127.246094"/>
       <use xlink:href="#DejaVuSans-34" x="190.869141"/>
       <use xlink:href="#DejaVuSans-2d" x="254.492188"/>
       <use xlink:href="#DejaVuSans-31" x="290.576172"/>
       <use xlink:href="#DejaVuSans-30" x="354.199219"/>
      </g>
     </g>
    </g>
    <g id="xtick_5">
     <g id="line2d_9">
      <path d="M 396.855407 246.04 
L 396.855407 25.44 
" clip-path="url(#pa1e85a9c59)" style="fill: none; stroke: #b0b0b0; stroke-width: 0.8; stroke-linecap: square"/>
     </g>
     <g id="line2d_10">
      <g>
       <use xlink:href="#m3e8a0e1873" x="396.855407" y="246.04" style="stroke: #000000; stroke-width: 0.8"/>
      </g>
     </g>
     <g id="text_5">
      <!-- 2024-11 -->
      <g transform="translate(375.964 260.638438) scale(0.1 -0.1)">
       <use xlink:href="#DejaVuSans-32"/>
       <use xlink:href="#DejaVuSans-30" x="63.623047"/>
       <use xlink:href="#DejaVuSans-32" x="127.246094"/>
       <use xlink:href="#DejaVuSans-34" x="190.869141"/>
       <use xlink:href="#DejaVuSans-2d" x="254.492188"/>
       <use xlink:href="#DejaVuSans-31" x="290.576172"/>
       <use xlink:href="#DejaVuSans-31" x="354.199219"/>
      </g>
     </g>
    </g>
    <g id="xtick_6">
     <g id="line2d_11">
      <path d="M 467.047732 246.04 
L 467.047732 25.44 
" clip-path="url(#pa1e85a9c59)" style="fill: none; stroke: #b0b0b0; stroke-width: 0.8; stroke-linecap: square"/>
     </g>
     <g id="line2d_12">
      <g>
       <use xlink:href="#m3e8a0e1873" x="467.047732" y="246.04" style="stroke: #000000; stroke-width: 0.8"/>
      </g>
     </g>
     <g id="text_6">
      <!-- 2024-12 -->
      <g transform="translate(446.156326 260.638438) scale(0.1 -0.1)">
       <use xlink:href="#DejaVuSans-32"/>
       <use xlink:href="#DejaVuSans-30" x="63.623047"/>
       <use xlink:href="#DejaVuSans-32" x="127.246094"/>
       <use xlink:href="#DejaVuSans-34" x="190.869141"/>
       <use xlink:href="#DejaVuSans-2d" x="254.492188"/>
       <use xlink:href="#DejaVuSans-31" x="290.576172"/>
       <use xlink:href="#DejaVuSans-32" x="354.199219"/>
      </g>
     </g>
    </g>
    <g id="xtick_7">
     <g id="line2d_13">
      <path d="M 539.579801 246.04 
L 539.579801 25.44 
" clip-path="url(#pa1e85a9c59)" style="fill: none; stroke: #b0b0b0; stroke-width: 0.8; stroke-linecap: square"/>
     </g>
     <g id="line2d_14">
      <g>
       <use xlink:href="#m3e8a0e1873" x="539.579801" y="246.04" style="stroke: #000000; stroke-width: 0.8"/>
      </g>
     </g>
     <g id="text_7">
      <!-- 2025-01 -->
      <g transform="translate(518.688395 260.638438) scale(0.1 -0.1)">
       <defs>
        <path id="DejaVuSans-35" d="M 691 4666 
L 3169 4666 
L 3169 4134 
L 1269 4134 
L 1269 2991 
Q 1406 3038 1543 3061 
Q 1681 3084 1819 3084 
Q 2600 3084 3056 2656 
Q 3513 2228 3513 1497 
Q 3513 744 3044 326 
Q 2575 -91 1722 -91 
Q 1428 -91 1123 -41 
Q 819 9 494 109 
L 494 744 
Q 775 591 1075 516 
Q 1375 441 1709 441 
Q 2250 441 2565 725 
Q 2881 1009 2881 1497 
Q 2881 1984 2565 2268 
Q 2250 2553 1709 2553 
Q 1456 2553 1204 2497 
Q 953 2441 691 2322 
L 691 4666 
z
" transform="scale(0.015625)"/>
       </defs>
       <use xlink:href="#DejaVuSans-32"/>
       <use xlink:href="#DejaVuSans-30" x="63.623047"/>
       <use xlink:href="#DejaVuSans-32" x="127.246094"/>
       <use xlink:href="#DejaVuSans-35" x="190.869141"/>
       <use xlink:href="#DejaVuSans-2d" x="254.492188"/>
       <use xlink:href="#DejaVuSans-30" x="290.576172"/>
       <use xlink:href="#DejaVuSans-31" x="354.199219"/>
      </g>
     </g>
    </g>
    <g id="text_8">
     <!-- Date -->
     <g transform="translate(297.164219 274.316562) scale(0.1 -0.1)">
      <defs>
       <path id="DejaVuSans-44" d="M 1259 4147 
L 1259 519 
L 2022 519 
Q 2988 519 3436 956 
Q 3884 1394 3884 2338 
Q 3884 3275 3436 3711 
Q 2988 4147 2022 4147 
L 1259 4147 
z
M 628 4666 
L 1925 4666 
Q 3281 4666 3915 4102 
Q 4550 3538 4550 2338 
Q 4550 1131 3912 565 
Q 3275 0 1925 0 
L 628 0 
L 628 4666 
z
" transform="scale(0.015625)"/>
       <path id="DejaVuSans-61" d="M 2194 1759 
Q 1497 1759 1228 1600 
Q 959 1441 959 1056 
Q 959 750 1161 570 
Q 1363 391 1709 391 
Q 2188 391 2477 730 
Q 2766 1069 2766 1631 
L 2766 1759 
L 2194 1759 
z
M 3341 1997 
L 3341 0 
L 2766 0 
L 2766 531 
Q 2569 213 2275 61 
Q 1981 -91 1556 -91 
Q 1019 -91 701 211 
Q 384 513 384 1019 
Q 384 1609 779 1909 
Q 1175 2209 1959 2209 
L 2766 2209 
L 2766 2266 
Q 2766 2663 2505 2880 
Q 2244 3097 1772 3097 
Q 1472 3097 1187 3025 
Q 903 2953 641 2809 
L 641 3341 
Q 956 3463 1253 3523 
Q 1550 3584 1831 3584 
Q 2591 3584 2966 3190 
Q 3341 2797 3341 1997 
z
" transform="scale(0.015625)"/>
       <path id="DejaVuSans-74" d="M 1172 4494 
L 1172 3500 
L 2356 3500 
L 2356 3053 
L 1172 3053 
L 1172 1153 
Q 1172 725 1289 603 
Q 1406 481 1766 481 
L 2356 481 
L 2356 0 
L 1766 0 
Q 1100 0 847 248 
Q 594 497 594 1153 
L 594 3053 
L 172 3053 
L 172 3500 
L 594 3500 
L 594 4494 
L 1172 4494 
z
" transform="scale(0.015625)"/>
       <path id="DejaVuSans-65" d="M 3597 1894 
L 3597 1613 
L 953 1613 
Q 991 1019 1311 708 
Q 1631 397 2203 397 
Q 2534 397 2845 478 
Q 3156 559 3463 722 
L 3463 178 
Q 3153 47 2828 -22 
Q 2503 -91 2169 -91 
Q 1331 -91 842 396 
Q 353 884 353 1716 
Q 353 2575 817 3079 
Q 1281 3584 2069 3584 
Q 2775 3584 3186 3129 
Q 3597 2675 3597 1894 
z
M 3022 2063 
Q 3016 2534 2758 2815 
Q 2500 3097 2075 3097 
Q 1594 3097 1305 2825 
Q 1016 2553 972 2059 
L 3022 2063 
z
" transform="scale(0.015625)"/>
      </defs>
      <use xlink:href="#DejaVuSans-44"/>
      <use xlink:href="#DejaVuSans-61" x="77.001953"/>
      <use xlink:href="#DejaVuSans-74" x="138.28125"/>
      <use xlink:href="#DejaVuSans-65" x="177.490234"/>
     </g>
    </g>
   </g>
   <g id="matplotlib.axis_2">
    <g id="ytick_1">
     <g id="line2d_15">
      <path d="M 53.03 233.206232 
L 565.2 233.206232 
" clip-path="url(#pa1e85a9c59)" style="fill: none; stroke: #b0b0b0; stroke-width: 0.8; stroke-linecap: square"/>
     </g>
     <g id="line2d_16">
      <defs>
       <path id="mdb1cd5c00d" d="M 0 0 
L -3.5 0 
" style="stroke: #000000; stroke-width: 0.8"/>
      </defs>
      <g>
       <use xlink:href="#mdb1cd5c00d" x="53.03" y="233.206232" style="stroke: #000000; stroke-width: 0.8"/>
      </g>
     </g>
     <g id="text_9">
      <!-- −40 -->
      <g transform="translate(24.925313 237.005451) scale(0.1 -0.1)">
       <defs>
        <path id="DejaVuSans-2212" d="M 678 2272 
L 4684 2272 
L 4684 1741 
L 678 1741 
L 678 2272 
z
" transform="scale(0.015625)"/>
       </defs>
       <use xlink:href="#DejaVuSans-2212"/>
       <use xlink:href="#DejaVuSans-34" x="83.789062"/>
       <use xlink:href="#DejaVuSans-30" x="147.412109"/>
      </g>
     </g>
    </g>
    <g id="ytick_2">
     <g id="line2d_17">
      <path d="M 53.03 200.034405 
L 565.2 200.034405 
" clip-path="url(#pa1e85a9c59)" style="fill: none; stroke: #b0b0b0; stroke-width: 0.8; stroke-linecap: square"/>
     </g>
     <g id="line2d_18">
      <g>
       <use xlink:href="#mdb1cd5c00d" x="53.03" y="200.034405" style="stroke: #000000; stroke-width: 0.8"/>
      </g>
     </g>
     <g id="text_10">
      <!-- −30 -->
      <g transform="translate(24.925313 203.833624) scale(0.1 -0.1)">
       <defs>
        <path id="DejaVuSans-33" d="M 2597 2516 
Q 3050 2419 3304 2112 
Q 3559 1806 3559 1356 
Q 3559 666 3084 287 
Q 2609 -91 1734 -91 
Q 1441 -91 1130 -33 
Q 819 25 488 141 
L 488 750 
Q 750 597 1062 519 
Q 1375 441 1716 441 
Q 2309 441 2620 675 
Q 2931 909 2931 1356 
Q 2931 1769 2642 2001 
Q 2353 2234 1838 2234 
L 1294 2234 
L 1294 2753 
L 1863 2753 
Q 2328 2753 2575 2939 
Q 2822 3125 2822 3475 
Q 2822 3834 2567 4026 
Q 2313 4219 1838 4219 
Q 1578 4219 1281 4162 
Q 984 4106 628 3988 
L 628 4550 
Q 988 4650 1302 4700 
Q 1616 4750 1894 4750 
Q 2613 4750 3031 4423 
Q 3450 4097 3450 3541 
Q 3450 3153 3228 2886 
Q 3006 2619 2597 2516 
z
" transform="scale(0.015625)"/>
       </defs>
       <use xlink:href="#DejaVuSans-2212"/>
       <use xlink:href="#DejaVuSans-33" x="83.789062"/>
       <use xlink:href="#DejaVuSans-30" x="147.412109"/>
      </g>
     </g>
    </g>
    <g id="ytick_3">
     <g id="line2d_19">
      <path d="M 53.03 166.862578 
L 565.2 166.862578 
" clip-path="url(#pa1e85a9c59)" style="fill: none; stroke: #b0b0b0; stroke-width: 0.8; stroke-linecap: square"/>
     </g>
     <g id="line2d_20">
      <g>
       <use xlink:href="#mdb1cd5c00d" x="53.03" y="166.862578" style="stroke: #000000; stroke-width: 0.8"/>
      </g>
     </g>
     <g id="text_11">
      <!-- −20 -->
      <g transform="translate(24.925313 170.661797) scale(0.1 -0.1)">
       <use xlink:href="#DejaVuSans-2212"/>
       <use xlink:href="#DejaVuSans-32" x="83.789062"/>
       <use xlink:href="#DejaVuSans-30" x="147.412109"/>
      </g>
     </g>
    </g>
    <g id="ytick_4">
     <g id="line2d_21">
      <path d="M 53.03 133.690751 
L 565.2 133.690751 
" clip-path="url(#pa1e85a9c59)" style="fill: none; stroke: #b0b0b0; stroke-width: 0.8; stroke-linecap: square"/>
     </g>
     <g id="line2d_22">
      <g>
       <use xlink:href="#mdb1cd5c00d" x="53.03" y="133.690751" style="stroke: #000000; stroke-width: 0.8"/>
      </g>
     </g>
     <g id="text_12">
      <!-- −10 -->
      <g transform="translate(24.925313 137.489969) scale(0.1 -0.1)">
       <use xlink:href="#DejaVuSans-2212"/>
       <use xlink:href="#DejaVuSans-31" x="83.789062"/>
       <use xlink:href="#DejaVuSans-30" x="147.412109"/>
      </g>
     </g>
    </g>
    <g id="ytick_5">
     <g id="line2d_23">
      <path d="M 53.03 100.518924 
L 565.2 100.518924 
" clip-path="url(#pa1e85a9c59)" style="fill: none; stroke: #b0b0b0; stroke-width: 0.8; stroke-linecap: square"/>
     </g>
     <g id="line2d_24">
      <g>
       <use xlink:href="#mdb1cd5c00d" x="53.03" y="100.518924" style="stroke: #000000; stroke-width: 0.8"/>
      </g>
     </g>
     <g id="text_13">
      <!-- 0 -->
      <g transform="translate(39.6675 104.318142) scale(0.1 -0.1)">
       <use xlink:href="#DejaVuSans-30"/>
      </g>
     </g>
    </g>
    <g id="ytick_6">
     <g id="line2d_25">
      <path d="M 53.03 67.347097 
L 565.2 67.347097 
" clip-path="url(#pa1e85a9c59)" style="fill: none; stroke: #b0b0b0; stroke-width: 0.8; stroke-linecap: square"/>
     </g>
     <g id="line2d_26">
      <g>
       <use xlink:href="#mdb1cd5c00d" x="53.03" y="67.347097" style="stroke: #000000; stroke-width: 0.8"/>
      </g>
     </g>
     <g id="text_14">
      <!-- 10 -->
      <g transform="translate(33.305 71.146315) scale(0.1 -0.1)">
       <use xlink:href="#DejaVuSans-31"/>
       <use xlink:href="#DejaVuSans-30" x="63.623047"/>
      </g>
     </g>
    </g>
    <g id="ytick_7">
     <g id="line2d_27">
      <path d="M 53.03 34.17527 
L 565.2 34.17527 
" clip-path="url(#pa1e85a9c59)" style="fill: none; stroke: #b0b0b0; stroke-width: 0.8; stroke-linecap: square"/>
     </g>
     <g id="line2d_28">
      <g>
       <use xlink:href="#mdb1cd5c00d" x="53.03" y="34.17527" style="stroke: #000000; stroke-width: 0.8"/>
      </g>
     </g>
     <g id="text_15">
      <!-- 20 -->
      <g transform="translate(33.305 37.974488) scale(0.1 -0.1)">
       <use xlink:href="#DejaVuSans-32"/>
       <use xlink:href="#DejaVuSans-30" x="63.623047"/>
      </g>
     </g>
    </g>
    <g id="text_16">
     <!-- Cum. sum -->
     <g transform="translate(18.845625 161.092344) rotate(-90) scale(0.1 -0.1)">
      <defs>
       <path id="DejaVuSans-43" d="M 4122 4306 
L 4122 3641 
Q 3803 3938 3442 4084 
Q 3081 4231 2675 4231 
Q 1875 4231 1450 3742 
Q 1025 3253 1025 2328 
Q 1025 1406 1450 917 
Q 1875 428 2675 428 
Q 3081 428 3442 575 
Q 3803 722 4122 1019 
L 4122 359 
Q 3791 134 3420 21 
Q 3050 -91 2638 -91 
Q 1578 -91 968 557 
Q 359 1206 359 2328 
Q 359 3453 968 4101 
Q 1578 4750 2638 4750 
Q 3056 4750 3426 4639 
Q 3797 4528 4122 4306 
z
" transform="scale(0.015625)"/>
       <path id="DejaVuSans-75" d="M 544 1381 
L 544 3500 
L 1119 3500 
L 1119 1403 
Q 1119 906 1312 657 
Q 1506 409 1894 409 
Q 2359 409 2629 706 
Q 2900 1003 2900 1516 
L 2900 3500 
L 3475 3500 
L 3475 0 
L 2900 0 
L 2900 538 
Q 2691 219 2414 64 
Q 2138 -91 1772 -91 
Q 1169 -91 856 284 
Q 544 659 544 1381 
z
M 1991 3584 
L 1991 3584 
z
" transform="scale(0.015625)"/>
       <path id="DejaVuSans-6d" d="M 3328 2828 
Q 3544 3216 3844 3400 
Q 4144 3584 4550 3584 
Q 5097 3584 5394 3201 
Q 5691 2819 5691 2113 
L 5691 0 
L 5113 0 
L 5113 2094 
Q 5113 2597 4934 2840 
Q 4756 3084 4391 3084 
Q 3944 3084 3684 2787 
Q 3425 2491 3425 1978 
L 3425 0 
L 2847 0 
L 2847 2094 
Q 2847 2600 2669 2842 
Q 2491 3084 2119 3084 
Q 1678 3084 1418 2786 
Q 1159 2488 1159 1978 
L 1159 0 
L 581 0 
L 581 3500 
L 1159 3500 
L 1159 2956 
Q 1356 3278 1631 3431 
Q 1906 3584 2284 3584 
Q 2666 3584 2933 3390 
Q 3200 3197 3328 2828 
z
" transform="scale(0.015625)"/>
       <path id="DejaVuSans-2e" d="M 684 794 
L 1344 794 
L 1344 0 
L 684 0 
L 684 794 
z
" transform="scale(0.015625)"/>
       <path id="DejaVuSans-20" transform="scale(0.015625)"/>
       <path id="DejaVuSans-73" d="M 2834 3397 
L 2834 2853 
Q 2591 2978 2328 3040 
Q 2066 3103 1784 3103 
Q 1356 3103 1142 2972 
Q 928 2841 928 2578 
Q 928 2378 1081 2264 
Q 1234 2150 1697 2047 
L 1894 2003 
Q 2506 1872 2764 1633 
Q 3022 1394 3022 966 
Q 3022 478 2636 193 
Q 2250 -91 1575 -91 
Q 1294 -91 989 -36 
Q 684 19 347 128 
L 347 722 
Q 666 556 975 473 
Q 1284 391 1588 391 
Q 1994 391 2212 530 
Q 2431 669 2431 922 
Q 2431 1156 2273 1281 
Q 2116 1406 1581 1522 
L 1381 1569 
Q 847 1681 609 1914 
Q 372 2147 372 2553 
Q 372 3047 722 3315 
Q 1072 3584 1716 3584 
Q 2034 3584 2315 3537 
Q 2597 3491 2834 3397 
z
" transform="scale(0.015625)"/>
      </defs>
      <use xlink:href="#DejaVuSans-43"/>
      <use xlink:href="#DejaVuSans-75" x="69.824219"/>
      <use xlink:href="#DejaVuSans-6d" x="133.203125"/>
      <use xlink:href="#DejaVuSans-2e" x="230.615234"/>
      <use xlink:href="#DejaVuSans-20" x="262.402344"/>
      <use xlink:href="#DejaVuSans-73" x="294.189453"/>
      <use xlink:href="#DejaVuSans-75" x="346.289062"/>
      <use xlink:href="#DejaVuSans-6d" x="409.667969"/>
     </g>
    </g>
   </g>
   <g id="line2d_29">
    <path d="M 76.310455 93.987074 
L 80.989943 93.733666 
L 83.329687 92.887671 
L 85.669431 95.669118 
L 88.009175 93.877533 
L 90.34892 98.169144 
L 92.688664 101.708767 
L 95.028408 103.474562 
L 97.368152 105.70237 
L 99.707896 108.188374 
L 102.04764 105.39076 
L 104.387385 111.144198 
L 106.727129 113.458155 
L 109.066873 114.206863 
L 111.406617 120.151427 
L 113.746361 125.571648 
L 116.086106 129.066653 
L 118.42585 124.582045 
L 120.765594 124.138887 
L 123.105338 127.427086 
L 125.445082 129.355365 
L 127.784826 135.914323 
L 132.464315 143.320389 
L 134.804059 148.122811 
L 137.143803 150.4811 
L 139.483547 155.735312 
L 141.823291 152.542713 
L 144.163036 152.802419 
L 146.50278 154.084474 
L 148.842524 152.300709 
L 151.182268 151.031314 
L 153.522012 154.257126 
L 155.861757 154.645973 
L 158.201501 153.696694 
L 160.541245 154.284631 
L 162.880989 159.566176 
L 165.220733 152.573351 
L 167.560477 154.266409 
L 169.900222 159.517563 
L 172.239966 157.383786 
L 174.57971 158.933071 
L 176.919454 164.818811 
L 179.259198 169.624166 
L 181.598942 168.761976 
L 183.938687 171.257835 
L 186.278431 169.845785 
L 188.618175 166.667097 
L 190.957919 165.999991 
L 193.297663 168.361734 
L 197.977152 160.89379 
L 200.316896 161.920438 
L 202.65664 159.539124 
L 204.996384 160.564073 
L 207.336128 157.244272 
L 209.675873 157.299137 
L 212.015617 157.830124 
L 214.355361 156.200461 
L 216.695105 156.444147 
L 219.034849 162.274249 
L 221.374593 165.986046 
L 223.714338 165.316154 
L 226.054082 162.712026 
L 228.393826 161.457876 
L 230.73357 158.946635 
L 233.073314 163.536346 
L 235.413058 164.884221 
L 237.752803 168.015025 
L 240.092547 174.476065 
L 242.432291 174.716565 
L 244.772035 173.450889 
L 247.111779 171.244765 
L 249.451524 173.031565 
L 251.791268 172.969685 
L 254.131012 177.639318 
L 256.470756 173.536964 
L 258.8105 177.188552 
L 261.150244 175.28761 
L 263.489989 178.806215 
L 265.829733 175.699283 
L 268.169477 177.848995 
L 270.509221 179.516443 
L 272.848965 178.264855 
L 275.188709 179.467026 
L 277.528454 173.420309 
L 279.868198 173.095252 
L 282.207942 176.274466 
L 284.547686 175.895325 
L 286.88743 174.972033 
L 289.227175 183.546524 
L 291.566919 186.502219 
L 293.906663 190.14438 
L 296.246407 195.374204 
L 298.586151 192.4638 
L 300.925895 190.534552 
L 303.26564 194.037429 
L 305.605384 194.593466 
L 307.945128 195.813565 
L 310.284872 197.248634 
L 312.624616 196.071843 
L 317.304105 189.49181 
L 319.643849 188.043039 
L 321.983593 191.253165 
L 324.323337 192.981891 
L 329.002825 190.211859 
L 331.34257 193.412091 
L 333.682314 200.87814 
L 336.022058 203.006058 
L 338.361802 199.348713 
L 340.701546 199.406491 
L 343.041291 203.120977 
L 345.381035 203.890086 
L 347.720779 201.732235 
L 350.060523 205.813628 
L 352.400267 207.691603 
L 354.740011 201.134211 
L 357.079756 196.973703 
L 361.759244 191.939219 
L 364.098988 188.97679 
L 366.438732 188.289481 
L 368.778476 193.923853 
L 371.118221 197.745909 
L 373.457965 197.012803 
L 375.797709 198.863239 
L 380.477197 193.676452 
L 382.816942 188.886402 
L 387.49643 184.169283 
L 389.836174 183.847226 
L 392.175918 188.78364 
L 394.515662 190.196485 
L 396.855407 192.831482 
L 399.195151 192.204064 
L 401.534895 194.410306 
L 403.874639 194.659452 
L 406.214383 199.397663 
L 408.554127 198.146912 
L 410.893872 197.822903 
L 413.233616 198.892542 
L 415.57336 204.280429 
L 417.913104 201.872985 
L 420.252848 206.785684 
L 422.592593 206.892914 
L 424.932337 207.645937 
L 427.272081 204.533716 
L 429.611825 207.489866 
L 431.951569 206.600414 
L 434.291313 207.649361 
L 436.631058 211.36557 
L 438.970802 213.042589 
L 441.310546 216.120069 
L 443.65029 214.215466 
L 445.990034 214.878198 
L 448.329778 216.665614 
L 450.669523 218.153622 
L 453.009267 218.631639 
L 455.349011 217.040353 
L 457.688755 220.43291 
L 460.028499 231.17418 
L 462.368243 230.606074 
L 464.707988 233.657326 
L 467.047732 234.302717 
L 469.387476 231.354042 
L 471.72722 232.53152 
L 474.066964 227.796337 
L 476.406709 230.076155 
L 478.746453 226.131199 
L 481.086197 230.305604 
L 483.425941 227.705635 
L 485.765685 230.701422 
L 488.105429 229.054297 
L 490.445174 231.258217 
L 492.784918 235.290031 
L 495.124662 234.309171 
L 497.464406 236.012727 
L 499.80415 235.592189 
L 502.143894 233.740023 
L 504.483639 233.125149 
L 506.823383 228.012977 
L 509.163127 229.305557 
L 511.502871 226.159282 
L 513.842615 220.244914 
L 516.18236 214.665136 
L 518.522104 210.273488 
L 520.861848 207.851202 
L 523.201592 211.451168 
L 525.541336 209.2934 
L 527.88108 208.078378 
L 530.220825 209.160657 
L 532.560569 209.601315 
L 534.900313 207.474552 
L 537.240057 207.51195 
L 539.579801 206.489137 
L 541.919545 204.557653 
L 541.919545 204.557653 
" clip-path="url(#pa1e85a9c59)" style="fill: none; stroke: #1f77b4; stroke-width: 2; stroke-linecap: square"/>
   </g>
   <g id="line2d_30">
    <path d="M 76.310455 103.805232 
L 78.650199 100.787006 
L 80.989943 102.631069 
L 83.329687 97.846297 
L 85.669431 98.184078 
L 88.009175 93.847771 
L 90.34892 97.374598 
L 92.688664 103.58139 
L 95.028408 103.807287 
L 97.368152 103.171964 
L 99.707896 99.610871 
L 102.04764 97.947569 
L 104.387385 99.030502 
L 106.727129 100.430935 
L 109.066873 100.451994 
L 111.406617 99.76158 
L 113.746361 98.068875 
L 116.086106 104.923383 
L 118.42585 105.218255 
L 123.105338 97.695022 
L 125.445082 92.945877 
L 127.784826 89.001526 
L 130.124571 87.727472 
L 132.464315 92.828674 
L 134.804059 93.906479 
L 137.143803 93.375825 
L 139.483547 96.197973 
L 141.823291 95.836666 
L 144.163036 89.64151 
L 146.50278 90.164726 
L 148.842524 87.071038 
L 151.182268 81.565641 
L 153.522012 79.870345 
L 155.861757 72.759466 
L 158.201501 69.807233 
L 160.541245 67.989204 
L 162.880989 66.926639 
L 165.220733 66.244335 
L 167.560477 58.231092 
L 169.900222 59.280249 
L 172.239966 57.213188 
L 174.57971 57.64073 
L 176.919454 62.469386 
L 179.259198 65.809551 
L 181.598942 64.599955 
L 183.938687 63.996931 
L 186.278431 62.518019 
L 188.618175 62.999137 
L 190.957919 66.249594 
L 193.297663 64.316384 
L 195.637407 63.612757 
L 197.977152 61.912324 
L 200.316896 61.540454 
L 202.65664 65.534502 
L 207.336128 56.225427 
L 209.675873 55.175757 
L 212.015617 59.666057 
L 214.355361 58.88901 
L 216.695105 53.759342 
L 219.034849 51.96898 
L 221.374593 54.74028 
L 223.714338 53.023092 
L 226.054082 48.718619 
L 228.393826 50.083994 
L 230.73357 49.354418 
L 233.073314 47.954984 
L 235.413058 52.49306 
L 237.752803 50.293567 
L 240.092547 48.610269 
L 242.432291 51.777663 
L 244.772035 50.009358 
L 247.111779 52.55215 
L 249.451524 55.402329 
L 251.791268 55.545164 
L 254.131012 55.525265 
L 256.470756 53.896373 
L 258.8105 56.910503 
L 261.150244 57.762941 
L 263.489989 54.767062 
L 265.829733 55.083503 
L 268.169477 56.038119 
L 270.509221 55.17692 
L 272.848965 51.940597 
L 275.188709 56.001976 
L 277.528454 61.696759 
L 279.868198 64.087825 
L 282.207942 63.621576 
L 284.547686 63.708585 
L 286.88743 65.298664 
L 289.227175 64.517384 
L 291.566919 64.8586 
L 293.906663 58.407597 
L 296.246407 56.637541 
L 298.586151 56.930146 
L 300.925895 61.900438 
L 303.26564 68.426095 
L 305.605384 71.945581 
L 307.945128 70.090089 
L 310.284872 70.982316 
L 312.624616 74.782631 
L 314.96436 72.329563 
L 317.304105 69.382237 
L 319.643849 69.827762 
L 321.983593 72.466405 
L 326.663081 78.800839 
L 329.002825 83.678131 
L 331.34257 81.337581 
L 333.682314 83.051909 
L 336.022058 79.046384 
L 338.361802 81.444309 
L 340.701546 81.133104 
L 343.041291 78.268242 
L 345.381035 75.224818 
L 347.720779 77.089434 
L 350.060523 76.822378 
L 352.400267 76.052816 
L 354.740011 73.237351 
L 357.079756 77.752873 
L 359.4195 71.480354 
L 361.759244 73.723865 
L 364.098988 71.538556 
L 366.438732 75.214644 
L 368.778476 73.215982 
L 371.118221 73.335441 
L 373.457965 74.570426 
L 375.797709 73.401293 
L 378.137453 66.517764 
L 380.477197 61.764254 
L 382.816942 66.625001 
L 385.156686 60.282366 
L 387.49643 60.075407 
L 389.836174 58.167594 
L 392.175918 57.094088 
L 394.515662 58.428279 
L 396.855407 54.926027 
L 399.195151 57.656077 
L 401.534895 56.246363 
L 406.214383 43.331089 
L 408.554127 43.033163 
L 410.893872 40.453091 
L 413.233616 42.40769 
L 415.57336 44.62658 
L 417.913104 46.319684 
L 420.252848 46.199764 
L 422.592593 48.420084 
L 424.932337 49.704952 
L 427.272081 46.404977 
L 429.611825 40.297267 
L 431.951569 37.587775 
L 434.291313 42.450698 
L 436.631058 42.510433 
L 438.970802 43.87874 
L 441.310546 40.163837 
L 443.65029 43.98577 
L 445.990034 42.230666 
L 448.329778 44.961231 
L 450.669523 45.291895 
L 453.009267 47.512941 
L 455.349011 48.321089 
L 457.688755 47.099062 
L 460.028499 41.518136 
L 462.368243 35.467273 
L 464.707988 38.119079 
L 467.047732 41.528515 
L 469.387476 46.043516 
L 471.72722 49.049194 
L 474.066964 45.923497 
L 476.406709 47.156057 
L 478.746453 44.280983 
L 481.086197 46.728886 
L 483.425941 50.203934 
L 485.765685 48.696289 
L 488.105429 51.074969 
L 490.445174 54.654684 
L 492.784918 54.217172 
L 495.124662 55.82848 
L 497.464406 54.386015 
L 499.80415 57.848903 
L 502.143894 61.826689 
L 504.483639 57.474009 
L 506.823383 58.306195 
L 509.163127 59.52384 
L 511.502871 59.590141 
L 513.842615 60.085244 
L 516.18236 64.773683 
L 518.522104 65.121098 
L 520.861848 72.102891 
L 523.201592 70.411988 
L 525.541336 71.455005 
L 527.88108 72.756748 
L 530.220825 73.104447 
L 532.560569 76.807941 
L 534.900313 75.66735 
L 537.240057 78.443046 
L 539.579801 77.478982 
L 541.919545 74.59205 
L 541.919545 74.59205 
" clip-path="url(#pa1e85a9c59)" style="fill: none; stroke-dasharray: 7.4,3.2; stroke-dashoffset: 0; stroke: #ff7f0e; stroke-width: 2"/>
   </g>
   <g id="line2d_31">
    <path d="M 76.310455 101.322383 
L 78.650199 103.524393 
L 80.989943 104.147729 
L 83.329687 109.384177 
L 85.669431 111.761132 
L 88.009175 106.943803 
L 90.34892 109.925595 
L 92.688664 102.922115 
L 95.028408 97.143439 
L 97.368152 102.109347 
L 99.707896 109.939502 
L 102.04764 114.173052 
L 104.387385 116.718343 
L 106.727129 119.526849 
L 109.066873 119.500308 
L 113.746361 122.898319 
L 116.086106 116.436705 
L 118.42585 116.407013 
L 120.765594 116.574482 
L 125.445082 107.459008 
L 127.784826 103.924757 
L 130.124571 106.706516 
L 132.464315 107.390493 
L 134.804059 102.186781 
L 137.143803 104.018456 
L 139.483547 108.227118 
L 141.823291 107.648923 
L 144.163036 109.391796 
L 146.50278 107.205542 
L 148.842524 106.643887 
L 151.182268 105.633996 
L 153.522012 106.957933 
L 155.861757 101.269254 
L 158.201501 105.639812 
L 160.541245 108.038644 
L 162.880989 106.516386 
L 165.220733 106.447331 
L 167.560477 103.916059 
L 169.900222 108.241567 
L 172.239966 109.594858 
L 174.57971 108.237858 
L 176.919454 107.880847 
L 179.259198 107.099915 
L 181.598942 105.913704 
L 183.938687 106.731839 
L 186.278431 106.59732 
L 188.618175 105.93117 
L 190.957919 106.380126 
L 193.297663 114.600015 
L 195.637407 117.550095 
L 197.977152 119.651912 
L 202.65664 131.517324 
L 204.996384 122.660193 
L 207.336128 125.568012 
L 209.675873 123.180696 
L 212.015617 126.29841 
L 214.355361 127.857197 
L 216.695105 128.075243 
L 219.034849 125.370529 
L 221.374593 125.609139 
L 223.714338 126.27521 
L 226.054082 121.164838 
L 228.393826 116.438135 
L 230.73357 117.553844 
L 233.073314 113.778943 
L 235.413058 110.404024 
L 237.752803 109.380887 
L 240.092547 112.279044 
L 242.432291 117.681821 
L 244.772035 117.730997 
L 247.111779 118.674793 
L 249.451524 118.850761 
L 251.791268 122.524181 
L 254.131012 123.164551 
L 256.470756 130.85393 
L 258.8105 130.974563 
L 261.150244 135.178692 
L 263.489989 138.726492 
L 265.829733 139.668126 
L 268.169477 143.962394 
L 270.509221 143.138601 
L 272.848965 142.499797 
L 275.188709 142.685051 
L 277.528454 144.890285 
L 279.868198 145.550241 
L 282.207942 143.530962 
L 284.547686 144.718826 
L 286.88743 143.809668 
L 289.227175 139.780952 
L 291.566919 144.24829 
L 296.246407 143.43561 
L 298.586151 141.692138 
L 300.925895 136.131448 
L 303.26564 139.698293 
L 305.605384 143.596786 
L 310.284872 143.86172 
L 312.624616 148.864576 
L 314.96436 146.763111 
L 317.304105 146.38526 
L 319.643849 141.935068 
L 321.983593 145.297699 
L 324.323337 143.712609 
L 326.663081 148.93844 
L 329.002825 143.408065 
L 331.34257 138.221141 
L 333.682314 141.792151 
L 336.022058 138.390922 
L 338.361802 134.695973 
L 340.701546 133.829428 
L 343.041291 140.430429 
L 345.381035 143.522873 
L 347.720779 145.251843 
L 350.060523 148.275821 
L 352.400267 154.133287 
L 354.740011 158.816354 
L 357.079756 164.251721 
L 359.4195 163.596823 
L 361.759244 166.025915 
L 364.098988 167.773159 
L 366.438732 170.772948 
L 368.778476 178.707375 
L 371.118221 177.519479 
L 373.457965 177.895965 
L 375.797709 171.851204 
L 378.137453 168.914947 
L 380.477197 167.352502 
L 382.816942 168.114271 
L 385.156686 173.009073 
L 387.49643 167.63823 
L 389.836174 167.37996 
L 392.175918 161.452144 
L 394.515662 163.309214 
L 396.855407 160.610733 
L 399.195151 163.511925 
L 401.534895 157.601097 
L 403.874639 155.565142 
L 406.214383 158.250467 
L 408.554127 159.577105 
L 410.893872 161.268895 
L 413.233616 158.606037 
L 415.57336 161.113429 
L 417.913104 162.552431 
L 420.252848 160.183102 
L 422.592593 163.264053 
L 424.932337 165.123608 
L 427.272081 161.232731 
L 429.611825 159.788941 
L 431.951569 163.663384 
L 434.291313 160.774341 
L 436.631058 162.687495 
L 438.970802 163.735077 
L 441.310546 164.422123 
L 443.65029 157.822567 
L 445.990034 161.414076 
L 448.329778 160.434626 
L 450.669523 160.555121 
L 453.009267 164.485617 
L 455.349011 163.878857 
L 457.688755 166.994554 
L 460.028499 166.78235 
L 462.368243 156.727905 
L 464.707988 156.955596 
L 467.047732 161.10163 
L 469.387476 160.55408 
L 471.72722 161.042439 
L 474.066964 160.931142 
L 476.406709 156.209132 
L 478.746453 155.76253 
L 481.086197 149.941557 
L 483.425941 150.854214 
L 485.765685 149.291943 
L 488.105429 150.420597 
L 490.445174 154.658409 
L 492.784918 161.516298 
L 495.124662 159.68419 
L 497.464406 157.64015 
L 499.80415 158.064916 
L 502.143894 162.873374 
L 504.483639 158.61883 
L 506.823383 157.441572 
L 509.163127 156.016084 
L 511.502871 154.986823 
L 513.842615 158.699576 
L 516.18236 158.182283 
L 518.522104 153.647091 
L 520.861848 147.983751 
L 523.201592 152.710155 
L 525.541336 150.041515 
L 527.88108 147.065783 
L 530.220825 150.12184 
L 532.560569 154.491672 
L 534.900313 157.415445 
L 537.240057 160.740684 
L 539.579801 163.573321 
L 541.919545 162.833331 
L 541.919545 162.833331 
" clip-path="url(#pa1e85a9c59)" style="fill: none; stroke-dasharray: 12.8,3.2,2,3.2; stroke-dashoffset: 0; stroke: #2ca02c; stroke-width: 2"/>
   </g>
   <g id="patch_3">
    <path d="M 53.03 246.04 
L 53.03 25.44 
" style="fill: none; stroke: #000000; stroke-width: 0.8; stroke-linejoin: miter; stroke-linecap: square"/>
   </g>
   <g id="patch_4">
    <path d="M 565.2 246.04 
L 565.2 25.44 
" style="fill: none; stroke: #000000; stroke-width: 0.8; stroke-linejoin: miter; stroke-linecap: square"/>
   </g>
   <g id="patch_5">
    <path d="M 53.03 246.04 
L 565.2 246.04 
" style="fill: none; stroke: #000000; stroke-width: 0.8; stroke-linejoin: miter; stroke-linecap: square"/>
   </g>
   <g id="patch_6">
    <path d="M 53.03 25.44 
L 565.2 25.44 
" style="fill: none; stroke: #000000; stroke-width: 0.8; stroke-linejoin: miter; stroke-linecap: square"/>
   </g>
   <g id="text_17">
    <!-- Random trends -->
    <g transform="translate(263.257187 19.44) scale(0.12 -0.12)">
     <defs>
      <path id="DejaVuSans-52" d="M 2841 2188 
Q 3044 2119 3236 1894 
Q 3428 1669 3622 1275 
L 4263 0 
L 3584 0 
L 2988 1197 
Q 2756 1666 2539 1819 
Q 2322 1972 1947 1972 
L 1259 1972 
L 1259 0 
L 628 0 
L 628 4666 
L 2053 4666 
Q 2853 4666 3247 4331 
Q 3641 3997 3641 3322 
Q 3641 2881 3436 2590 
Q 3231 2300 2841 2188 
z
M 1259 4147 
L 1259 2491 
L 2053 2491 
Q 2509 2491 2742 2702 
Q 2975 2913 2975 3322 
Q 2975 3731 2742 3939 
Q 2509 4147 2053 4147 
L 1259 4147 
z
" transform="scale(0.015625)"/>
      <path id="DejaVuSans-6e" d="M 3513 2113 
L 3513 0 
L 2938 0 
L 2938 2094 
Q 2938 2591 2744 2837 
Q 2550 3084 2163 3084 
Q 1697 3084 1428 2787 
Q 1159 2491 1159 1978 
L 1159 0 
L 581 0 
L 581 3500 
L 1159 3500 
L 1159 2956 
Q 1366 3272 1645 3428 
Q 1925 3584 2291 3584 
Q 2894 3584 3203 3211 
Q 3513 2838 3513 2113 
z
" transform="scale(0.015625)"/>
      <path id="DejaVuSans-64" d="M 2906 2969 
L 2906 4863 
L 3481 4863 
L 3481 0 
L 2906 0 
L 2906 525 
Q 2725 213 2448 61 
Q 2172 -91 1784 -91 
Q 1150 -91 751 415 
Q 353 922 353 1747 
Q 353 2572 751 3078 
Q 1150 3584 1784 3584 
Q 2172 3584 2448 3432 
Q 2725 3281 2906 2969 
z
M 947 1747 
Q 947 1113 1208 752 
Q 1469 391 1925 391 
Q 2381 391 2643 752 
Q 2906 1113 2906 1747 
Q 2906 2381 2643 2742 
Q 2381 3103 1925 3103 
Q 1469 3103 1208 2742 
Q 947 2381 947 1747 
z
" transform="scale(0.015625)"/>
      <path id="DejaVuSans-6f" d="M 1959 3097 
Q 1497 3097 1228 2736 
Q 959 2375 959 1747 
Q 959 1119 1226 758 
Q 1494 397 1959 397 
Q 2419 397 2687 759 
Q 2956 1122 2956 1747 
Q 2956 2369 2687 2733 
Q 2419 3097 1959 3097 
z
M 1959 3584 
Q 2709 3584 3137 3096 
Q 3566 2609 3566 1747 
Q 3566 888 3137 398 
Q 2709 -91 1959 -91 
Q 1206 -91 779 398 
Q 353 888 353 1747 
Q 353 2609 779 3096 
Q 1206 3584 1959 3584 
z
" transform="scale(0.015625)"/>
      <path id="DejaVuSans-72" d="M 2631 2963 
Q 2534 3019 2420 3045 
Q 2306 3072 2169 3072 
Q 1681 3072 1420 2755 
Q 1159 2438 1159 1844 
L 1159 0 
L 581 0 
L 581 3500 
L 1159 3500 
L 1159 2956 
Q 1341 3275 1631 3429 
Q 1922 3584 2338 3584 
Q 2397 3584 2469 3576 
Q 2541 3569 2628 3553 
L 2631 2963 
z
" transform="scale(0.015625)"/>
     </defs>
     <use xlink:href="#DejaVuSans-52"/>
     <use xlink:href="#DejaVuSans-61" x="67.232422"/>
     <use xlink:href="#DejaVuSans-6e" x="128.511719"/>
     <use xlink:href="#DejaVuSans-64" x="191.890625"/>
     <use xlink:href="#DejaVuSans-6f" x="255.367188"/>
     <use xlink:href="#DejaVuSans-6d" x="316.548828"/>
     <use xlink:href="#DejaVuSans-20" x="413.960938"/>
     <use xlink:href="#DejaVuSans-74" x="445.748047"/>
     <use xlink:href="#DejaVuSans-72" x="484.957031"/>
     <use xlink:href="#DejaVuSans-65" x="523.820312"/>
     <use xlink:href="#DejaVuSans-6e" x="585.34375"/>
     <use xlink:href="#DejaVuSans-64" x="648.722656"/>
     <use xlink:href="#DejaVuSans-73" x="712.199219"/>
    </g>
   </g>
   <g id="legend_1">
    <g id="patch_7">
     <path d="M 58.861 68.917394 
L 100.561761 68.917394 
Q 102.227761 68.917394 102.227761 67.251394 
L 102.227761 31.271 
Q 102.227761 29.605 100.561761 29.605 
L 58.861 29.605 
Q 57.195 29.605 57.195 31.271 
L 57.195 67.251394 
Q 57.195 68.917394 58.861 68.917394 
z
" style="fill: #ffffff; opacity: 0.25; stroke: #cccccc; stroke-linejoin: miter"/>
    </g>
    <g id="line2d_32">
     <path d="M 60.527 36.395252 
L 68.857 36.395252 
L 77.187 36.395252 
" style="fill: none; stroke: #1f77b4; stroke-width: 2; stroke-linecap: square"/>
    </g>
    <g id="text_18">
     <!-- foo -->
     <g transform="translate(83.851 39.310752) scale(0.0833 -0.0833)">
      <defs>
       <path id="DejaVuSansMono-66" d="M 3322 4863 
L 3322 4384 
L 2669 4384 
Q 2359 4384 2239 4257 
Q 2119 4131 2119 3809 
L 2119 3500 
L 3322 3500 
L 3322 3053 
L 2119 3053 
L 2119 0 
L 1544 0 
L 1544 3053 
L 609 3053 
L 609 3500 
L 1544 3500 
L 1544 3744 
Q 1544 4319 1808 4591 
Q 2072 4863 2631 4863 
L 3322 4863 
z
" transform="scale(0.015625)"/>
       <path id="DejaVuSansMono-6f" d="M 1925 3097 
Q 1488 3097 1263 2756 
Q 1038 2416 1038 1747 
Q 1038 1081 1263 739 
Q 1488 397 1925 397 
Q 2366 397 2591 739 
Q 2816 1081 2816 1747 
Q 2816 2416 2591 2756 
Q 2366 3097 1925 3097 
z
M 1925 3584 
Q 2653 3584 3039 3112 
Q 3425 2641 3425 1747 
Q 3425 850 3040 379 
Q 2656 -91 1925 -91 
Q 1197 -91 812 379 
Q 428 850 428 1747 
Q 428 2641 812 3112 
Q 1197 3584 1925 3584 
z
" transform="scale(0.015625)"/>
      </defs>
      <use xlink:href="#DejaVuSansMono-66"/>
      <use xlink:href="#DejaVuSansMono-6f" x="60.205078"/>
      <use xlink:href="#DejaVuSansMono-6f" x="120.410156"/>
     </g>
    </g>
    <g id="line2d_33">
     <path d="M 60.527 48.666383 
L 68.857 48.666383 
L 77.187 48.666383 
" style="fill: none; stroke-dasharray: 7.4,3.2; stroke-dashoffset: 0; stroke: #ff7f0e; stroke-width: 2"/>
    </g>
    <g id="text_19">
     <!-- bar -->
     <g transform="translate(83.851 51.581883) scale(0.0833 -0.0833)">
      <defs>
       <path id="DejaVuSansMono-62" d="M 2869 1747 
Q 2869 2416 2656 2756 
Q 2444 3097 2028 3097 
Q 1609 3097 1393 2755 
Q 1178 2413 1178 1747 
Q 1178 1084 1393 740 
Q 1609 397 2028 397 
Q 2444 397 2656 737 
Q 2869 1078 2869 1747 
z
M 1178 3053 
Q 1316 3309 1558 3446 
Q 1800 3584 2119 3584 
Q 2750 3584 3112 3098 
Q 3475 2613 3475 1759 
Q 3475 894 3111 401 
Q 2747 -91 2113 -91 
Q 1800 -91 1561 45 
Q 1322 181 1178 441 
L 1178 0 
L 603 0 
L 603 4863 
L 1178 4863 
L 1178 3053 
z
" transform="scale(0.015625)"/>
       <path id="DejaVuSansMono-61" d="M 2194 1759 
L 2003 1759 
Q 1500 1759 1245 1582 
Q 991 1406 991 1056 
Q 991 741 1181 566 
Q 1372 391 1709 391 
Q 2184 391 2456 720 
Q 2728 1050 2731 1631 
L 2731 1759 
L 2194 1759 
z
M 3309 1997 
L 3309 0 
L 2731 0 
L 2731 519 
Q 2547 206 2267 57 
Q 1988 -91 1588 -91 
Q 1053 -91 734 211 
Q 416 513 416 1019 
Q 416 1603 808 1906 
Q 1200 2209 1959 2209 
L 2731 2209 
L 2731 2300 
Q 2728 2719 2518 2908 
Q 2309 3097 1850 3097 
Q 1556 3097 1256 3012 
Q 956 2928 672 2766 
L 672 3341 
Q 991 3463 1283 3523 
Q 1575 3584 1850 3584 
Q 2284 3584 2592 3456 
Q 2900 3328 3091 3072 
Q 3209 2916 3259 2686 
Q 3309 2456 3309 1997 
z
" transform="scale(0.015625)"/>
       <path id="DejaVuSansMono-72" d="M 3609 2778 
Q 3425 2922 3234 2987 
Q 3044 3053 2816 3053 
Q 2278 3053 1993 2715 
Q 1709 2378 1709 1741 
L 1709 0 
L 1131 0 
L 1131 3500 
L 1709 3500 
L 1709 2816 
Q 1853 3188 2151 3386 
Q 2450 3584 2859 3584 
Q 3072 3584 3256 3531 
Q 3441 3478 3609 3366 
L 3609 2778 
z
" transform="scale(0.015625)"/>
      </defs>
      <use xlink:href="#DejaVuSansMono-62"/>
      <use xlink:href="#DejaVuSansMono-61" x="60.205078"/>
      <use xlink:href="#DejaVuSansMono-72" x="120.410156"/>
     </g>
    </g>
    <g id="line2d_34">
     <path d="M 60.527 60.937514 
L 68.857 60.937514 
L 77.187 60.937514 
" style="fill: none; stroke-dasharray: 12.8,3.2,2,3.2; stroke-dashoffset: 0; stroke: #2ca02c; stroke-width: 2"/>
    </g>
    <g id="text_20">
     <!-- baz -->
     <g transform="translate(83.851 63.853014) scale(0.0833 -0.0833)">
      <defs>
       <path id="DejaVuSansMono-7a" d="M 709 3506 
L 3250 3506 
L 3250 2981 
L 1241 469 
L 3250 469 
L 3250 0 
L 634 0 
L 634 531 
L 2644 3047 
L 709 3047 
L 709 3506 
z
" transform="scale(0.015625)"/>
      </defs>
      <use xlink:href="#DejaVuSansMono-62"/>
      <use xlink:href="#DejaVuSansMono-61" x="60.205078"/>
      <use xlink:href="#DejaVuSansMono-7a" x="120.410156"/>
     </g>
    </g>
   </g>
  </g>
  <g id="text_21">
   <!-- © Acme Designs 2021 -->
   <g transform="translate(460.341875 283.040313) scale(0.1 -0.1)">
    <defs>
     <path id="DejaVuSans-a9" d="M 3200 4641 
Q 3675 4641 4086 4469 
Q 4497 4297 4838 3956 
Q 5178 3616 5347 3206 
Q 5516 2797 5516 2316 
Q 5516 1841 5347 1433 
Q 5178 1025 4838 684 
Q 4497 344 4086 172 
Q 3675 0 3200 0 
Q 2725 0 2314 172 
Q 1903 344 1563 684 
Q 1222 1025 1053 1433 
Q 884 1841 884 2316 
Q 884 2797 1053 3206 
Q 1222 3616 1563 3956 
Q 1903 4297 2314 4469 
Q 2725 4641 3200 4641 
z
M 3200 4319 
Q 2791 4319 2437 4172 
Q 2084 4025 1791 3731 
Q 1497 3438 1347 3080 
Q 1197 2722 1197 2316 
Q 1197 1913 1347 1558 
Q 1497 1203 1791 909 
Q 2084 616 2437 467 
Q 2791 319 3200 319 
Q 3613 319 3967 467 
Q 4322 616 4616 909 
Q 4906 1200 5051 1553 
Q 5197 1906 5197 2316 
Q 5197 2731 5050 3086 
Q 4903 3441 4616 3731 
Q 4322 4025 3967 4172 
Q 3613 4319 3200 4319 
z
M 4134 3553 
L 4134 3150 
Q 3928 3253 3725 3303 
Q 3522 3353 3316 3353 
Q 2850 3353 2589 3079 
Q 2328 2806 2328 2316 
Q 2328 1819 2595 1547 
Q 2863 1275 3347 1275 
Q 3547 1275 3737 1323 
Q 3928 1372 4134 1478 
L 4134 1081 
Q 3925 991 3711 947 
Q 3497 903 3278 903 
Q 2603 903 2211 1284 
Q 1819 1666 1819 2316 
Q 1819 2969 2211 3347 
Q 2603 3725 3278 3725 
Q 3506 3725 3718 3681 
Q 3931 3638 4134 3553 
z
" transform="scale(0.015625)"/>
     <path id="DejaVuSans-41" d="M 2188 4044 
L 1331 1722 
L 3047 1722 
L 2188 4044 
z
M 1831 4666 
L 2547 4666 
L 4325 0 
L 3669 0 
L 3244 1197 
L 1141 1197 
L 716 0 
L 50 0 
L 1831 4666 
z
" transform="scale(0.015625)"/>
     <path id="DejaVuSans-63" d="M 3122 3366 
L 3122 2828 
Q 2878 2963 2633 3030 
Q 2388 3097 2138 3097 
Q 1578 3097 1268 2742 
Q 959 2388 959 1747 
Q 959 1106 1268 751 
Q 1578 397 2138 397 
Q 2388 397 2633 464 
Q 2878 531 3122 666 
L 3122 134 
Q 2881 22 2623 -34 
Q 2366 -91 2075 -91 
Q 1284 -91 818 406 
Q 353 903 353 1747 
Q 353 2603 823 3093 
Q 1294 3584 2113 3584 
Q 2378 3584 2631 3529 
Q 2884 3475 3122 3366 
z
" transform="scale(0.015625)"/>
     <path id="DejaVuSans-69" d="M 603 3500 
L 1178 3500 
L 1178 0 
L 603 0 
L 603 3500 
z
M 603 4863 
L 1178 4863 
L 1178 4134 
L 603 4134 
L 603 4863 
z
" transform="scale(0.015625)"/>
     <path id="DejaVuSans-67" d="M 2906 1791 
Q 2906 2416 2648 2759 
Q 2391 3103 1925 3103 
Q 1463 3103 1205 2759 
Q 947 2416 947 1791 
Q 947 1169 1205 825 
Q 1463 481 1925 481 
Q 2391 481 2648 825 
Q 2906 1169 2906 1791 
z
M 3481 434 
Q 3481 -459 3084 -895 
Q 2688 -1331 1869 -1331 
Q 1566 -1331 1297 -1286 
Q 1028 -1241 775 -1147 
L 775 -588 
Q 1028 -725 1275 -790 
Q 1522 -856 1778 -856 
Q 2344 -856 2625 -561 
Q 2906 -266 2906 331 
L 2906 616 
Q 2728 306 2450 153 
Q 2172 0 1784 0 
Q 1141 0 747 490 
Q 353 981 353 1791 
Q 353 2603 747 3093 
Q 1141 3584 1784 3584 
Q 2172 3584 2450 3431 
Q 2728 3278 2906 2969 
L 2906 3500 
L 3481 3500 
L 3481 434 
z
" transform="scale(0.015625)"/>
    </defs>
    <use xlink:href="#DejaVuSans-a9"/>
    <use xlink:href="#DejaVuSans-20" x="100"/>
    <use xlink:href="#DejaVuSans-41" x="131.787109"/>
    <use xlink:href="#DejaVuSans-63" x="198.445312"/>
    <use xlink:href="#DejaVuSans-6d" x="253.425781"/>
    <use xlink:href="#DejaVuSans-65" x="350.837891"/>
    <use xlink:href="#DejaVuSans-20" x="412.361328"/>
    <use xlink:href="#DejaVuSans-44" x="444.148438"/>
    <use xlink:href="#DejaVuSans-65" x="521.150391"/>
    <use xlink:href="#DejaVuSans-73" x="582.673828"/>
    <use xlink:href="#DejaVuSans-69" x="634.773438"/>
    <use xlink:href="#DejaVuSans-67" x="662.556641"/>
    <use xlink:href="#DejaVuSans-6e" x="726.033203"/>
    <use xlink:href="#DejaVuSans-73" x="789.412109"/>
    <use xlink:href="#DejaVuSans-20" x="841.511719"/>
    <use xlink:href="#DejaVuSans-32" x="873.298828"/>
    <use xlink:href="#DejaVuSans-30" x="936.921875"/>
    <use xlink:href="#DejaVuSans-32" x="1000.544922"/>
    <use xlink:href="#DejaVuSans-31" x="1064.167969"/>
   </g>
  </g>
 </g>
 <defs>
  <clipPath id="pa1e85a9c59">
   <rect x="53.03" y="25.44" width="512.17" height="220.6"/>
  </clipPath>
 </defs>
</svg>
